<svg xmlns="http://www.w3.org/2000/svg" viewBox="0 0 64 64" width="64" height="64" role="img" aria-label="Beaver swimming">
  <g stroke="#1D2B27" stroke-width="2.8" stroke-linecap="round" stroke-linejoin="round">
    <ellipse cx="9" cy="30" rx="8.6" ry="5.2" transform="rotate(-38 9 30)" fill="#9A6B45"/>
    <circle cx="45" cy="20.5" r="3.4" fill="#9A6B45"/>
    <path d="M57 30.5 C57 25.5 53.5 21 48.5 19.5 C43.5 18 38.5 19.5 35.5 22.5 C31 20 24 20 19 23.5 C14 27 12 33 12.5 38.5 L57 38.5 Z" fill="#9A6B45"/>
    <path d="M53.8 31.5 h3.3 l-0.7 5 h-2 Z" fill="#E4972B" stroke-width="2"/>
  </g>
  <g fill="#1D2B27">
    <circle cx="49.5" cy="26" r="2"/>
    <circle cx="56" cy="28.6" r="1.9"/>
  </g>
  <g fill="none" stroke="#2E6B68" stroke-width="3.2" stroke-linecap="round">
    <path d="M3 40.5 Q11 36.5 19 40.5 T35 40.5 T51 40.5 T63 40.5"/>
    <path d="M8 49 Q17 44.5 26 49 T44 49 T60 49"/>
    <path d="M16 57 Q26 52.5 36 57 T56 57"/>
  </g>
</svg>
